<?xml version="1.0" encoding="UTF-8" standalone="no"?>
<!-- Created with Inkscape (http://www.inkscape.org/) -->

<svg
   xmlns:dc="http://purl.org/dc/elements/1.1/"
   xmlns:cc="http://creativecommons.org/ns#"
   xmlns:rdf="http://www.w3.org/1999/02/22-rdf-syntax-ns#"
   xmlns:svg="http://www.w3.org/2000/svg"
   xmlns="http://www.w3.org/2000/svg"
   xmlns:sodipodi="http://sodipodi.sourceforge.net/DTD/sodipodi-0.dtd"
   xmlns:inkscape="http://www.inkscape.org/namespaces/inkscape"
   width="97.061844mm"
   height="93.292068mm"
   viewBox="0 0 343.91993 330.56244"
   id="svg2"
   version="1.1"
   inkscape:version="0.91 r13725"
   sodipodi:docname="cactus_single.svg">
  <defs
     id="defs4" />
  <sodipodi:namedview
     id="base"
     pagecolor="#ffffff"
     bordercolor="#666666"
     borderopacity="1.0"
     inkscape:pageopacity="0.0"
     inkscape:pageshadow="2"
     inkscape:zoom="0.98994949"
     inkscape:cx="-62.633113"
     inkscape:cy="-91.989596"
     inkscape:document-units="px"
     inkscape:current-layer="layer1"
     showgrid="false"
     fit-margin-top="0"
     fit-margin-left="0"
     fit-margin-right="0"
     fit-margin-bottom="0"
     inkscape:window-width="1920"
     inkscape:window-height="1137"
     inkscape:window-x="-8"
     inkscape:window-y="-8"
     inkscape:window-maximized="1" />
  <metadata
     id="metadata7">
    <rdf:RDF>
      <cc:Work
         rdf:about="">
        <dc:format>image/svg+xml</dc:format>
        <dc:type
           rdf:resource="http://purl.org/dc/dcmitype/StillImage" />
        <dc:title></dc:title>
      </cc:Work>
    </rdf:RDF>
  </metadata>
  <g
     inkscape:label="Layer 1"
     inkscape:groupmode="layer"
     id="layer1"
     transform="translate(-464.78452,-320.89508)">
    <path
       style="fill:#000000"
       d="m 938.26562,6.0507812 0,3.3398438 0,3.337891 -3.33984,0 -3.33789,0 0,66.78125 0,66.779294 -11.6875,0 -11.68555,0 0,-45.07617 0,-45.076171 -3.33984,0 -3.33789,0 0,-3.339844 0,-3.337891 -10.01758,0 -10.01758,0 0,3.337891 0,3.339844 -3.33789,0 -3.33984,0 0,51.753901 0,51.75586 3.33984,0 3.33789,0 0,3.3379 0,3.33984 3.33985,0 3.33789,0 0,3.33789 0,3.33984 3.33984,0 3.33985,0 0,5.00782 0,5.00976 18.36328,0 18.36523,0 0,73.45899 0,73.45703 -8.34766,0 -8.34765,0 0,0.0918 -70.11914,0 0,-0.73632 0,-31.07618 0,-38.39843 11.68554,0 11.6875,0 0,-3.33789 0,-3.33985 3.3379,0 3.33984,0 0,-5.00781 0,-5.00977 3.33984,0 3.33789,0 0,-30.05078 0,-30.05078 -3.33789,0 -3.33984,0 0,-5.00976 0,-5.00782 -3.33984,0 -3.3379,0 0,5.00782 0,5.00976 -3.33984,0 -3.33789,0 0,30.05078 0,30.05078 -8.34766,0 -8.34765,0 0,-48.41601 0,-48.41602 -3.33985,0 -3.33789,0 0,-3.33789 0,-3.33984 -3.33984,0 -3.33789,0 0,3.33984 0,3.33789 -3.33985,0 -3.33984,0 0,48.41602 0,48.41601 -6.67773,0 -6.67774,0 0,-30.05078 0,-30.05078 -3.33984,0 -3.33789,0 0,-5.00976 0,-5.00782 -3.33985,0 -3.33789,0 0,5.00782 0,5.00976 -3.33984,0 -3.33789,0 0,30.05078 0,30.05078 3.33789,0 3.33984,0 0,5.00977 0,5.00781 3.33789,0 3.33985,0 0,3.33985 0,3.33789 3.33789,0 3.33984,0 0,3.33984 0,3.33789 6.67774,0 6.67773,0 0,35.06055 0,28.47265 -56.76367,0 0,-88.57617 0,-95.16211 15.02734,0 15.02539,0 0,-3.33789 0,-3.33984 3.33789,0 3.33985,0 0,-3.33789 0,-3.33985 3.33789,0 3.33984,0 0,-35.060543 0,-35.058594 -3.33984,0 -3.33789,0 0,-3.339844 0,-3.33789 -3.33985,0 -3.33789,0 0,3.33789 0,3.339844 -3.33984,0 -3.33789,0 0,31.720703 0,31.720704 -11.6875,0 -11.6875,0 0,-50.085938 0,-50.085938 -3.33789,0 -3.33984,0 0,-3.33789 0,-3.339844 -10.01563,0 -10.01758,0 0,3.339844 0,3.33789 -3.33984,0 -3.33789,0 0,91.824216 0,91.82227 -6.67774,0 -6.67968,0 0,-41.73633 0,-41.73828 -3.3379,0 -3.33984,0 0,-3.33984 0,-3.3379 -8.34766,0 -8.34765,0 0,3.3379 0,3.33984 -3.33789,0 -3.33985,0 0,45.07617 0,45.07813 3.33985,0 3.33789,0 0,3.33789 0,3.33984 5.00976,0 5.00782,0 0,3.33789 0,3.33984 3.33984,0 3.33789,0 0,3.3379 0,3.33984 10.01758,0 10.01758,0 0,50.08594 0,50.08398 16.69531,0 16.69336,0 0,-0.10937 56.76367,0 0,0.10937 10.01758,0 10.01758,0 0,-0.10937 70.11914,0 0,0.10937 31.7207,0 31.7207,0 0,-60.10156 0,-60.10156 15.0254,0 15.02542,0 0,-3.33985 0,-3.33984 3.3398,0 3.3379,0 0,-3.33789 0,-3.33985 3.3398,0 3.3399,0 0,-3.33789 0,-3.33984 3.3379,0 3.3398,0 0,-3.33984 0,-3.33789 3.3379,0 3.3399,0 0,-50.08594 0,-50.085939 -3.3399,0 -3.3379,0 0,-3.337891 0,-3.339844 -10.0176,0 -10.0175,0 0,3.339844 0,3.337891 -5.0078,0 -5.00786,0 0,53.425779 0,53.42383 -10.01758,0 -10.01758,0 0,-91.82227 0,-91.824214 -3.33984,0 -3.33789,0 0,-3.337891 0,-3.3398438 -16.69531,0 -16.69532,0 z"
       transform="translate(-226.39321,314.84428)"
       id="path4269"
       inkscape:connector-curvature="0" />
  </g>
</svg>
