<?xml version="1.0" encoding="UTF-8" standalone="no"?>
<!-- Created with Inkscape (http://www.inkscape.org/) -->

<svg
   xmlns:dc="http://purl.org/dc/elements/1.1/"
   xmlns:cc="http://creativecommons.org/ns#"
   xmlns:rdf="http://www.w3.org/1999/02/22-rdf-syntax-ns#"
   xmlns:svg="http://www.w3.org/2000/svg"
   xmlns="http://www.w3.org/2000/svg"
   xmlns:sodipodi="http://sodipodi.sourceforge.net/DTD/sodipodi-0.dtd"
   xmlns:inkscape="http://www.inkscape.org/namespaces/inkscape"
   width="292.12753mm"
   height="95mm"
   viewBox="0 0 1035.0976 336.61417"
   id="svg2"
   version="1.1"
   inkscape:version="0.91 r13725"
   sodipodi:docname="cactus.svg">
  <defs
     id="defs4" />
  <sodipodi:namedview
     id="base"
     pagecolor="#ffffff"
     bordercolor="#666666"
     borderopacity="1.0"
     inkscape:pageopacity="0.0"
     inkscape:pageshadow="2"
     inkscape:zoom="0.7"
     inkscape:cx="848.32339"
     inkscape:cy="-6.3415063"
     inkscape:document-units="px"
     inkscape:current-layer="layer1"
     showgrid="false"
     fit-margin-top="0"
     fit-margin-left="0"
     fit-margin-right="0"
     fit-margin-bottom="0"
     inkscape:window-width="1920"
     inkscape:window-height="1137"
     inkscape:window-x="-8"
     inkscape:window-y="-8"
     inkscape:window-maximized="1" />
  <metadata
     id="metadata7">
    <rdf:RDF>
      <cc:Work
         rdf:about="">
        <dc:format>image/svg+xml</dc:format>
        <dc:type
           rdf:resource="http://purl.org/dc/dcmitype/StillImage" />
        <dc:title></dc:title>
      </cc:Work>
    </rdf:RDF>
  </metadata>
  <g
     inkscape:label="Layer 1"
     inkscape:groupmode="layer"
     id="layer1"
     transform="translate(226.39321,-314.8443)">
    <path
       style="fill:#000000"
       d=""
       id="path4192"
       inkscape:connector-curvature="0" />
    <path
       style="fill:#000000"
       d=""
       id="path4190"
       inkscape:connector-curvature="0" />
    <path
       style="fill:#000000"
       d=""
       id="path4188"
       inkscape:connector-curvature="0" />
    <path
       style="fill:#000000"
       d="m 341.24097,648.11946 0,-3.33903 6.67805,0 6.67805,0 0,-50.08537 0,-50.08537 -15.02561,0 -15.02561,0 0,-3.33902 0,-3.33903 -3.33903,0 -3.33902,0 0,-3.33902 0,-3.33903 -3.33903,0 -3.33902,0 0,-3.33902 0,-3.33902 -3.33903,0 -3.33902,0 0,-3.33903 0,-3.33902 -3.33902,0 -3.33903,0 0,-53.4244 0,-53.42439 3.33903,0 3.33902,0 0,-3.33903 0,-3.33902 10.01707,0 10.01708,0 0,3.33902 0,3.33903 5.00853,0 5.00854,0 0,50.08537 0,50.08537 10.01707,0 10.01708,0 0,-91.82318 0,-91.82317 3.33902,0 3.33903,0 0,-3.33903 0,-3.33902 16.69512,0 16.69512,0 0,3.33902 0,3.33903 3.33903,0 3.33902,0 0,91.82317 0,91.82318 11.68659,0 11.68656,0 0,-53.4244 0,-53.42439 3.33903,0 3.33902,0 0,-3.33902 0,-3.33903 6.67805,0 6.67805,0 0,3.33903 0,3.33902 3.33903,0 3.33902,0 0,53.42439 0,53.4244 -3.33902,0 -3.33903,0 0,3.33902 0,3.33903 -3.33902,0 -3.33903,0 0,3.33902 0,3.33903 -3.33902,0 -3.33903,0 0,3.33902 0,3.33902 -15.02559,0 -15.02561,0 0,60.10245 0,60.10244 -30.05122,0 -30.05122,0 z m 166.95121,-46.74635 0,-50.08537 -10.01708,0 -10.01707,0 0,-3.33902 0,-3.33903 -3.33902,0 -3.33903,0 0,-3.33902 0,-3.33903 -5.00854,0 -5.00853,0 0,-3.33902 0,-3.33903 -3.33903,0 -3.33902,0 0,-45.07683 0,-45.07683 3.33902,0 3.33903,0 0,-3.33902 0,-3.33903 8.34756,0 8.34756,0 0,3.33903 0,3.33902 3.33902,0 3.33903,0 0,41.73781 0,41.73781 6.67805,0 6.67805,0 0,-91.82318 0,-91.82318 3.33902,0 3.33902,0 0,-3.33902 0,-3.33902 10.01708,0 10.01707,0 0,3.33902 0,3.33902 3.33903,0 3.33902,0 0,50.08537 0,50.08537 11.68659,0 11.68658,0 0,-31.72073 0,-31.72074 3.33903,0 3.33902,0 0,-3.33902 0,-3.33903 3.33903,0 3.33902,0 0,3.33903 0,3.33902 3.33903,0 3.33902,0 0,35.05976 0,35.05976 -3.33902,0 -3.33903,0 0,3.33902 0,3.33903 -3.33902,0 -3.33903,0 0,3.33902 0,3.33903 -15.02561,0 -15.02561,0 0,95.1622 0,95.1622 -16.69512,0 -16.69512,0 z m 90.15366,15.02561 0,-35.05976 -6.67805,0 -6.67805,0 0,-3.33902 0,-3.33903 -3.33902,0 -3.33903,0 0,-3.33902 0,-3.33902 -3.33902,0 -3.33903,0 0,-5.00854 0,-5.00854 -3.33902,0 -3.33903,0 0,-30.05122 0,-30.05122 3.33903,0 3.33902,0 0,-5.00854 0,-5.00853 3.33903,0 3.33902,0 0,5.00853 0,5.00854 3.33903,0 3.33902,0 0,30.05122 0,30.05122 6.67805,0 6.67805,0 0,-48.41586 0,-48.41585 3.33902,0 3.33903,0 0,-3.33903 0,-3.33902 3.33902,0 3.33903,0 0,3.33902 0,3.33903 3.33902,0 3.33903,0 0,48.41585 0,48.41586 8.34756,0 8.34756,0 0,-30.05122 0,-30.05122 3.33902,0 3.33903,0 0,-5.00854 0,-5.00853 3.33902,0 3.33903,0 0,5.00853 0,5.00854 3.33902,0 3.33903,0 0,30.05122 0,30.05122 -3.33903,0 -3.33902,0 0,5.00854 0,5.00854 -3.33903,0 -3.33902,0 0,3.33902 0,3.33902 -11.68659,0 -11.68658,0 0,38.39879 0,38.39878 -10.01708,0 -10.01707,0 z m 90.15366,31.72074 0,-3.33903 8.34756,0 8.34757,0 0,-73.45854 0,-73.45854 -18.36464,0 -18.36463,0 0,-5.00854 0,-5.00853 -3.33903,0 -3.33902,0 0,-3.33903 0,-3.33902 -3.33903,0 -3.33902,0 0,-3.33903 0,-3.33902 -3.33903,0 -3.33902,0 0,-51.75488 0,-51.75489 3.33902,0 3.33903,0 0,-3.33902 0,-3.33902 10.01707,0 10.01707,0 0,3.33902 0,3.33902 3.33903,0 3.33902,0 0,45.07684 0,45.07683 11.68659,0 11.68659,0 0,-66.78049 0,-66.78049 3.33902,0 3.33903,0 0,-3.33903 0,-3.33902 16.69512,0 16.69512,0 0,3.33902 0,3.33903 3.33903,0 3.33902,0 0,91.82317 0,91.82318 10.01708,0 10.01707,0 0,-53.4244 0,-53.42439 5.00854,0 5.00853,0 0,-3.33902 0,-3.33903 10.01708,0 10.01707,0 0,3.33903 0,3.33902 3.33902,0 3.33903,0 0,50.08537 0,50.08537 -3.33903,0 -3.33902,0 0,3.33902 0,3.33903 -3.33903,0 -3.33902,0 0,3.33902 0,3.33903 -3.33902,0 -3.33903,0 0,3.33902 0,3.33903 -3.33902,0 -3.33903,0 0,3.33902 0,3.33902 -15.02561,0 -15.02561,0 0,60.10245 0,60.10244 -31.72073,0 -31.72074,0 z m -871.48539,-6.67805 0,-3.33903 6.67805,0 6.67805,0 0,-50.08537 0,-50.08537 -18.36464,0 -18.36463,0 0,-3.33902 0,-3.33903 -3.33903,0 -3.33902,0 0,-3.33902 0,-3.33902 -3.33903,0 -3.33902,0 0,-3.33903 0,-3.33902 -3.33903,0 -3.33902,0 0,-53.4244 0,-53.42439 3.33902,0 3.33903,0 0,-3.33903 0,-3.33902 10.01707,0 10.01708,0 0,3.33902 0,3.33903 5.00853,0 5.00854,0 0,46.74634 0,46.74635 10.01707,0 10.01708,0 0,-88.48415 0,-88.48415 3.33902,0 3.33903,0 0,-3.33903 0,-3.33902 16.69512,0 16.69512,0 0,3.33902 0,3.33903 3.33903,0 3.33902,0 0,88.48415 0,88.48415 11.68659,0 11.686577,0 0,-53.4244 0,-53.42439 3.33903,0 3.33902,0 0,-3.33902 0,-3.33903 10.01708,0 10.01707,0 0,3.33903 0,3.33902 3.33903,0 3.33902,0 0,53.42439 0,53.4244 -3.33902,0 -3.33903,0 0,3.33902 0,3.33903 -3.33902,0 -3.33903,0 0,3.33902 0,3.33903 -3.33902,0 -3.33903,0 0,3.33902 0,3.33903 -3.33902,0 -3.33903,0 0,3.33902 0,3.33902 -15.025607,0 -15.02561,0 0,56.76342 0,56.76342 -30.05122,0 -30.05122,0 z m 173.6292771,0 0,-3.33903 6.67805,0 6.67805,0 0,-50.08537 0,-50.08537 -16.6951301,0 -16.69512,0 0,-3.33902 0,-3.33903 -3.33902,0 -3.33903,0 0,-3.33902 0,-3.33902 -3.33902,0 -3.33903,0 0,-3.33903 0,-3.33902 -5.00853,0 -5.00854,0 0,-53.4244 0,-53.42439 5.00854,0 5.00853,0 0,-3.33903 0,-3.33902 10.01708,0 10.01707,0 0,3.33902 0,3.33903 3.33902,0 3.33903,0 0,46.74634 0,46.74635 10.0170701,0 10.01708,0 0,-88.48415 0,-88.48415 3.33902,0 3.3390299,0 0,-3.33903 0,-3.33902 18.36463,0 18.36464,0 0,3.33902 0,3.33903 3.33902,0 3.33903,0 0,88.48415 0,88.48415 10.01707,0 10.01707,0 0,-53.4244 0,-53.42439 3.33903,0 3.33902,0 0,-3.33902 0,-3.33903 6.67805,0 6.67805,0 0,3.33903 0,3.33902 3.33903,0 3.339023,0 0,53.42439 0,53.4244 -3.339023,0 -3.33903,0 0,3.33902 0,3.33903 -3.33902,0 -3.33903,0 0,3.33902 0,3.33903 -3.33902,0 -3.33903,0 0,3.33902 0,3.33903 -13.3561,0 -13.35609,0 0,60.10244 0,60.10244 -31.72074,0 -31.7207299,0 z m 173.6292829,0 0,-3.33903 8.34756,0 8.34756,0 0,-70.11951 0,-70.11952 -15.02561,0 -15.02561,0 0,-5.00854 0,-5.00853 -3.33903,0 -3.33902,0 0,-3.33903 0,-3.33902 -3.33903,0 -3.33902,0 0,-3.33903 0,-3.33902 -3.33902,0 -3.33903,0 0,-3.33903 0,-3.33902 -3.33902,0 -3.33903,0 0,-51.75488 0,-51.75488 3.33903,0 3.33902,0 0,-3.33903 0,-3.33902 10.01707,0 10.01708,0 0,3.33902 0,3.33903 3.33902,0 3.33903,0 0,48.41585 0,48.41586 11.68658,0 11.68659,0 0,-66.78049 0,-66.78049 3.33902,0 3.33903,0 0,-3.33903 0,-3.33902 16.69512,0 16.69512,0 0,3.33902 0,3.33903 3.33903,0 3.33902,0 0,88.48415 0,88.48415 10.01708,0 10.01707,0 0,-53.4244 0,-53.42439 5.00854,0 5.00853,0 0,-3.33902 0,-3.33903 10.01708,0 10.01707,0 0,3.33903 0,3.33902 3.33902,0 3.33903,0 0,53.42439 0,53.4244 -3.33903,0 -3.33902,0 0,3.33902 0,3.33903 -3.33902,0 -3.33903,0 0,3.33902 0,3.33903 -3.33902,0 -3.33903,0 0,3.33902 0,3.33903 -3.33902,0 -3.33903,0 0,3.33902 0,3.33902 -15.02561,0 -15.02561,0 0,56.76342 0,56.76342 -31.72073,0 -31.72073,0 z M 292.41832,314.94436 c 0.54147,-0.1411 1.29275,-0.13182 1.66952,0.0206 l 0.68504,0.27717 -1.66952,-0.0206 -1.66951,-0.0206 0.98447,-0.25654 z"
       id="path4269"
       inkscape:connector-curvature="0"
       sodipodi:nodetypes="cccccccccccccccccccccccccccccccccccccccccccccccccccccccccccccccccccccccccccccccccccccccccccccccccccccccccccccccccccccccccccccccccccccccccccccccccccccccccccccccccccccccccccccccccccccccccccccccccccccccccccccccccccccccccccccccccccccccccccccccccccccccccccccccccccccccccccccccccccccccccccccccccccccccccccccccccccccccccccccccccccccccccccccccccccccccccccccccccccccccccccccccccccccccccccccccccccccccccccccccccccccccccccccccccccccccccccccccccccccccccccccccccccccccccccccccccccccccccccccccccccccccccccccccccccccccccccccccccccccccccccccccccccccccccccccccccccccccccccccccccccccccccccccccccccccccccccccccccccccccccccccc" />
  </g>
</svg>
