  0
SECTION
  2
HEADER
  9
$ACADVER
  1
AC1014
  9
$HANDSEED
  5
FFFF
  9
$MEASUREMENT
 70
     1
  0
ENDSEC
  0
SECTION
  2
TABLES
  0
TABLE
  2
VPORT
  5
8
330
0
100
AcDbSymbolTable
 70
     4
  0
VPORT
  5
2E
330
8
100
AcDbSymbolTableRecord
100
AcDbViewportTableRecord
  2
*ACTIVE
 70
     0
 10
0.0
 20
0.0
 11
1.0
 21
1.0
 12
210.0
 22
148.5
 13
0.0
 23
0.0
 14
10.0
 24
10.0
 15
10.0
 25
10.0
 16
0.0
 26
0.0
 36
1.0
 17
0.0
 27
0.0
 37
0.0
 40
341.0
 41
1.24
 42
50.0
 43
0.0
 44
0.0
 50
0.0
 51
0.0
 71
     0
 72
   100
 73
     1
 74
     3
 75
     0
 76
     0
 77
     0
 78
     0
  0
ENDTAB
  0
TABLE
  2
LTYPE
  5
5
330
0
100
AcDbSymbolTable
 70
     1
  0
LTYPE
  5
14
330
5
100
AcDbSymbolTableRecord
100
AcDbLinetypeTableRecord
  2
BYBLOCK
 70
     0
  3

 72
    65
 73
     0
 40
0.0
  0
LTYPE
  5
15
330
5
100
AcDbSymbolTableRecord
100
AcDbLinetypeTableRecord
  2
BYLAYER
 70
     0
  3

 72
    65
 73
     0
 40
0.0
  0
LTYPE
  5
16
330
5
100
AcDbSymbolTableRecord
100
AcDbLinetypeTableRecord
  2
CONTINUOUS
 70
     0
  3
Solid line
 72
    65
 73
     0
 40
0.0
  0
ENDTAB
  0
TABLE
  2
LAYER
  5
2
100
AcDbSymbolTable
 70
2
  0
LAYER
  5
50
100
AcDbSymbolTableRecord
100
AcDbLayerTableRecord
  2
0
 70
0
  6
CONTINUOUS
  0
LAYER
  5
51
100
AcDbSymbolTableRecord
100
AcDbLayerTableRecord
  2
Layer_1
 70
0
  6
CONTINUOUS
  0
ENDTAB
  0
TABLE
  2
STYLE
  5
3
330
0
100
AcDbSymbolTable
 70
     1
  0
STYLE
  5
11
330
3
100
AcDbSymbolTableRecord
100
AcDbTextStyleTableRecord
  2
STANDARD
 70
     0
 40
0.0
 41
1.0
 50
0.0
 71
     0
 42
2.5
  3
txt
  4

  0
ENDTAB
  0
TABLE
  2
VIEW
  5
6
330
0
100
AcDbSymbolTable
 70
     0
  0
ENDTAB
  0
TABLE
  2
UCS
  5
7
330
0
100
AcDbSymbolTable
 70
     0
  0
ENDTAB
  0
TABLE
  2
APPID
  5
9
330
0
100
AcDbSymbolTable
 70
     2
  0
APPID
  5
12
330
9
100
AcDbSymbolTableRecord
100
AcDbRegAppTableRecord
  2
ACAD
 70
     0
  0
ENDTAB
  0
TABLE
  2
DIMSTYLE
  5
A
330
0
100
AcDbSymbolTable
 70
     1
  0
DIMSTYLE
105
27
330
A
100
AcDbSymbolTableRecord
100
AcDbDimStyleTableRecord
  2
ISO-25
 70
     0
  3

  4

  5

  6

  7

 40
1.0
 41
2.5
 42
0.625
 43
3.75
 44
1.25
 45
0.0
 46
0.0
 47
0.0
 48
0.0
140
2.5
141
2.5
142
0.0
143
0.03937007874016
144
1.0
145
0.0
146
1.0
147
0.625
 71
     0
 72
     0
 73
     0
 74
     0
 75
     0
 76
     0
 77
     1
 78
     8
170
     0
171
     3
172
     1
173
     0
174
     0
175
     0
176
     0
177
     0
178
     0
270
     2
271
     2
272
     2
273
     2
274
     3
340
11
275
     0
280
     0
281
     0
282
     0
283
     0
284
     8
285
     0
286
     0
287
     3
288
     0
  0
ENDTAB
  0
TABLE
  2
BLOCK_RECORD
  5
1
330
0
100
AcDbSymbolTable
 70
     1
  0
BLOCK_RECORD
  5
1F
330
1
100
AcDbSymbolTableRecord
100
AcDbBlockTableRecord
  2
*MODEL_SPACE
  0
BLOCK_RECORD
  5
1B
330
1
100
AcDbSymbolTableRecord
100
AcDbBlockTableRecord
  2
*PAPER_SPACE
  0
ENDTAB
  0
ENDSEC
  0
SECTION
  2
BLOCKS
  0
BLOCK
  5
20
330
1F
100
AcDbEntity
  8
0
100
AcDbBlockBegin
  2
*MODEL_SPACE
 70
     0
 10
0.0
 20
0.0
 30
0.0
  3
*MODEL_SPACE
  1

  0
ENDBLK
  5
21
330
1F
100
AcDbEntity
  8
0
100
AcDbBlockEnd
  0
BLOCK
  5
1C
330
1B
100
AcDbEntity
 67
     1
  8
0
100
AcDbBlockBegin
  2
*PAPER_SPACE
  1

  0
ENDBLK
  5
1D
330
1B
100
AcDbEntity
 67
     1
  8
0
100
AcDbBlockEnd
  0
ENDSEC
  0
SECTION
  2
ENTITIES
  0
LINE
  5
100
100
AcDbEntity
  8
Layer_1
 62
7
100
AcDbLine
 10
567.141143
 20
39.394924
 30
0.0
 11
567.141143
 21
45.894925
 31
0.0
  0
SPLINE
  5
101
100
AcDbEntity
  8
Layer_1
 62
7
100
AcDbSpline
 70
8
 71
3
 72
8
 73
4
 74
0
 40
0
 40
0
 40
0
 40
0
 40
1
 40
1
 40
1
 40
1
 10
567.141143
 20
45.894925
 30
0.0
 10
567.141143
 20
46.447206
 30
0.0
 10
566.693425
 20
46.894923
 30
0.0
 10
566.141145
 20
46.894923
 30
0.0
  0
LINE
  5
102
100
AcDbEntity
  8
Layer_1
 62
7
100
AcDbLine
 10
566.141145
 20
46.894923
 30
0.0
 11
283.641131
 21
46.894923
 31
0.0
  0
LINE
  5
103
100
AcDbEntity
  8
Layer_1
 62
7
100
AcDbLine
 10
283.641131
 20
46.894923
 30
0.0
 11
1.141109
 21
46.894923
 31
0.0
  0
SPLINE
  5
104
100
AcDbEntity
  8
Layer_1
 62
7
100
AcDbSpline
 70
8
 71
3
 72
8
 73
4
 74
0
 40
0
 40
0
 40
0
 40
0
 40
1
 40
1
 40
1
 40
1
 10
1.141109
 20
46.894923
 30
0.0
 10
0.588828
 20
46.894923
 30
0.0
 10
0.141111
 20
46.447206
 30
0.0
 10
0.141111
 20
45.894925
 30
0.0
  0
LINE
  5
105
100
AcDbEntity
  8
Layer_1
 62
7
100
AcDbLine
 10
0.141111
 20
45.894925
 30
0.0
 11
0.141111
 21
39.394924
 31
0.0
  0
SPLINE
  5
106
100
AcDbEntity
  8
Layer_1
 62
7
100
AcDbSpline
 70
8
 71
3
 72
8
 73
4
 74
0
 40
0
 40
0
 40
0
 40
0
 40
1
 40
1
 40
1
 40
1
 10
0.141111
 20
39.394924
 30
0.0
 10
0.141139
 20
39.118798
 30
0.0
 10
0.364998
 20
38.894939
 30
0.0
 10
0.641124
 20
38.894939
 30
0.0
  0
LINE
  5
107
100
AcDbEntity
  8
Layer_1
 62
7
100
AcDbLine
 10
0.641124
 20
38.894939
 30
0.0
 11
11.764744
 21
38.894939
 31
0.0
  0
SPLINE
  5
108
100
AcDbEntity
  8
Layer_1
 62
7
100
AcDbSpline
 70
8
 71
3
 72
8
 73
4
 74
0
 40
0
 40
0
 40
0
 40
0
 40
1
 40
1
 40
1
 40
1
 10
11.829119
 20
38.895108
 30
0.0
 10
11.807660
 20
38.895109
 30
0.0
 10
11.786202
 20
38.895053
 30
0.0
 10
11.764744
 20
38.894939
 30
0.0
  0
SPLINE
  5
109
100
AcDbEntity
  8
Layer_1
 62
7
100
AcDbSpline
 70
8
 71
3
 72
8
 73
4
 74
0
 40
0
 40
0
 40
0
 40
0
 40
1
 40
1
 40
1
 40
1
 10
23.819499
 20
27.374825
 30
0.0
 10
23.562758
 20
33.810791
 30
0.0
 10
18.270203
 20
38.895845
 30
0.0
 10
11.829119
 20
38.895108
 30
0.0
  0
LINE
  5
10a
100
AcDbEntity
  8
Layer_1
 62
7
100
AcDbLine
 10
23.819499
 20
27.374825
 30
0.0
 11
23.819499
 21
0.641125
 31
0.0
  0
SPLINE
  5
10b
100
AcDbEntity
  8
Layer_1
 62
7
100
AcDbSpline
 70
8
 71
3
 72
8
 73
4
 74
0
 40
0
 40
0
 40
0
 40
0
 40
1
 40
1
 40
1
 40
1
 10
23.819499
 20
0.641125
 30
0.0
 10
23.819496
 20
0.508512
 30
0.0
 10
23.872174
 20
0.381330
 30
0.0
 10
23.965946
 20
0.287558
 30
0.0
  0
SPLINE
  5
10c
100
AcDbEntity
  8
Layer_1
 62
7
100
AcDbSpline
 70
8
 71
3
 72
8
 73
4
 74
0
 40
0
 40
0
 40
0
 40
0
 40
1
 40
1
 40
1
 40
1
 10
23.965946
 20
0.287558
 30
0.0
 10
24.059717
 20
0.193787
 30
0.0
 10
24.186899
 20
0.141108
 30
0.0
 10
24.319512
 20
0.141112
 30
0.0
  0
LINE
  5
10d
100
AcDbEntity
  8
Layer_1
 62
7
100
AcDbLine
 10
24.319512
 20
0.141112
 30
0.0
 11
81.297743
 21
0.141112
 31
0.0
  0
SPLINE
  5
10e
100
AcDbEntity
  8
Layer_1
 62
7
100
AcDbSpline
 70
8
 71
3
 72
8
 73
4
 74
0
 40
0
 40
0
 40
0
 40
0
 40
1
 40
1
 40
1
 40
1
 10
81.297743
 20
0.141112
 30
0.0
 10
81.430354
 20
0.141111
 30
0.0
 10
81.557534
 20
0.193791
 30
0.0
 10
81.651302
 20
0.287562
 30
0.0
  0
SPLINE
  5
10f
100
AcDbEntity
  8
Layer_1
 62
7
100
AcDbSpline
 70
8
 71
3
 72
8
 73
4
 74
0
 40
0
 40
0
 40
0
 40
0
 40
1
 40
1
 40
1
 40
1
 10
81.651302
 20
0.287562
 30
0.0
 10
81.745071
 20
0.381334
 30
0.0
 10
81.797749
 20
0.508514
 30
0.0
 10
81.797745
 20
0.641125
 30
0.0
  0
LINE
  5
110
100
AcDbEntity
  8
Layer_1
 62
7
100
AcDbLine
 10
81.797745
 20
0.641125
 30
0.0
 11
81.797745
 21
15.040921
 31
0.0
  0
SPLINE
  5
111
100
AcDbEntity
  8
Layer_1
 62
7
100
AcDbSpline
 70
8
 71
3
 72
8
 73
4
 74
0
 40
0
 40
0
 40
0
 40
0
 40
1
 40
1
 40
1
 40
1
 10
81.797745
 20
15.040921
 30
0.0
 10
81.797749
 20
15.173532
 30
0.0
 10
81.745071
 20
15.300713
 30
0.0
 10
81.651302
 20
15.394484
 30
0.0
  0
SPLINE
  5
112
100
AcDbEntity
  8
Layer_1
 62
7
100
AcDbSpline
 70
8
 71
3
 72
8
 73
4
 74
0
 40
0
 40
0
 40
0
 40
0
 40
1
 40
1
 40
1
 40
1
 10
81.651302
 20
15.394484
 30
0.0
 10
81.557534
 20
15.488255
 30
0.0
 10
81.430354
 20
15.540935
 30
0.0
 10
81.297743
 20
15.540934
 30
0.0
  0
LINE
  5
113
100
AcDbEntity
  8
Layer_1
 62
7
100
AcDbLine
 10
81.297743
 20
15.540934
 30
0.0
 11
76.748081
 21
15.540934
 31
0.0
  0
LINE
  5
114
100
AcDbEntity
  8
Layer_1
 62
7
100
AcDbLine
 10
76.748081
 20
15.540934
 30
0.0
 11
76.748081
 21
26.897221
 31
0.0
  0
LINE
  5
115
100
AcDbEntity
  8
Layer_1
 62
7
100
AcDbLine
 10
76.748081
 20
26.897221
 30
0.0
 11
77.224715
 21
26.897221
 31
0.0
  0
LINE
  5
116
100
AcDbEntity
  8
Layer_1
 62
7
100
AcDbLine
 10
77.224715
 20
26.897221
 30
0.0
 11
81.047666
 21
26.897221
 31
0.0
  0
LINE
  5
117
100
AcDbEntity
  8
Layer_1
 62
7
100
AcDbLine
 10
81.047666
 20
26.897221
 30
0.0
 11
81.247900
 21
26.897221
 31
0.0
  0
SPLINE
  5
118
100
AcDbEntity
  8
Layer_1
 62
7
100
AcDbSpline
 70
8
 71
3
 72
8
 73
4
 74
0
 40
0
 40
0
 40
0
 40
0
 40
1
 40
1
 40
1
 40
1
 10
81.747899
 20
26.397236
 30
0.0
 10
81.747891
 20
26.673372
 30
0.0
 10
81.524036
 20
26.897220
 30
0.0
 10
81.247900
 20
26.897221
 30
0.0
  0
LINE
  5
119
100
AcDbEntity
  8
Layer_1
 62
7
100
AcDbLine
 10
81.747899
 20
26.397236
 30
0.0
 11
81.747899
 21
24.886105
 31
0.0
  0
SPLINE
  5
11a
100
AcDbEntity
  8
Layer_1
 62
7
100
AcDbSpline
 70
8
 71
3
 72
8
 73
4
 74
0
 40
0
 40
0
 40
0
 40
0
 40
1
 40
1
 40
1
 40
1
 10
81.747899
 20
24.886105
 30
0.0
 10
81.747902
 20
21.572402
 30
0.0
 10
84.434190
 20
18.886117
 30
0.0
 10
87.747893
 20
18.886117
 30
0.0
  0
SPLINE
  5
11b
100
AcDbEntity
  8
Layer_1
 62
7
100
AcDbSpline
 70
8
 71
3
 72
8
 73
4
 74
0
 40
0
 40
0
 40
0
 40
0
 40
1
 40
1
 40
1
 40
1
 10
87.747893
 20
18.886117
 30
0.0
 10
91.061596
 20
18.886117
 30
0.0
 10
93.747883
 20
21.572402
 30
0.0
 10
93.747886
 20
24.886105
 30
0.0
  0
LINE
  5
11c
100
AcDbEntity
  8
Layer_1
 62
7
100
AcDbLine
 10
93.747886
 20
24.886105
 30
0.0
 11
93.747886
 21
26.397236
 31
0.0
  0
SPLINE
  5
11d
100
AcDbEntity
  8
Layer_1
 62
7
100
AcDbSpline
 70
8
 71
3
 72
8
 73
4
 74
0
 40
0
 40
0
 40
0
 40
0
 40
1
 40
1
 40
1
 40
1
 10
94.247885
 20
26.897221
 30
0.0
 10
93.971749
 20
26.897220
 30
0.0
 10
93.747895
 20
26.673372
 30
0.0
 10
93.747886
 20
26.397236
 30
0.0
  0
LINE
  5
11e
100
AcDbEntity
  8
Layer_1
 62
7
100
AcDbLine
 10
94.247885
 20
26.897221
 30
0.0
 11
94.448119
 21
26.897221
 31
0.0
  0
LINE
  5
11f
100
AcDbEntity
  8
Layer_1
 62
7
100
AcDbLine
 10
94.448119
 20
26.897221
 30
0.0
 11
98.271070
 21
26.897221
 31
0.0
  0
LINE
  5
120
100
AcDbEntity
  8
Layer_1
 62
7
100
AcDbLine
 10
98.271070
 20
26.897221
 30
0.0
 11
98.747704
 21
26.897221
 31
0.0
  0
LINE
  5
121
100
AcDbEntity
  8
Layer_1
 62
7
100
AcDbLine
 10
98.747704
 20
26.897221
 30
0.0
 11
98.747704
 21
15.540934
 31
0.0
  0
LINE
  5
122
100
AcDbEntity
  8
Layer_1
 62
7
100
AcDbLine
 10
98.747704
 20
15.540934
 30
0.0
 11
94.198042
 21
15.540934
 31
0.0
  0
SPLINE
  5
123
100
AcDbEntity
  8
Layer_1
 62
7
100
AcDbSpline
 70
8
 71
3
 72
8
 73
4
 74
0
 40
0
 40
0
 40
0
 40
0
 40
1
 40
1
 40
1
 40
1
 10
94.198042
 20
15.540934
 30
0.0
 10
94.065431
 20
15.540935
 30
0.0
 10
93.938252
 20
15.488255
 30
0.0
 10
93.844483
 20
15.394484
 30
0.0
  0
SPLINE
  5
124
100
AcDbEntity
  8
Layer_1
 62
7
100
AcDbSpline
 70
8
 71
3
 72
8
 73
4
 74
0
 40
0
 40
0
 40
0
 40
0
 40
1
 40
1
 40
1
 40
1
 10
93.844483
 20
15.394484
 30
0.0
 10
93.750714
 20
15.300713
 30
0.0
 10
93.698037
 20
15.173532
 30
0.0
 10
93.698040
 20
15.040921
 30
0.0
  0
LINE
  5
125
100
AcDbEntity
  8
Layer_1
 62
7
100
AcDbLine
 10
93.698040
 20
15.040921
 30
0.0
 11
93.698040
 21
0.641125
 31
0.0
  0
SPLINE
  5
126
100
AcDbEntity
  8
Layer_1
 62
7
100
AcDbSpline
 70
8
 71
3
 72
8
 73
4
 74
0
 40
0
 40
0
 40
0
 40
0
 40
1
 40
1
 40
1
 40
1
 10
93.698040
 20
0.641125
 30
0.0
 10
93.698032
 20
0.364976
 30
0.0
 10
93.921834
 20
0.141112
 30
0.0
 10
94.197983
 20
0.141112
 30
0.0
  0
SPLINE
  5
127
100
AcDbEntity
  8
Layer_1
 62
7
100
AcDbSpline
 70
8
 71
3
 72
8
 73
4
 74
0
 40
0
 40
0
 40
0
 40
0
 40
1
 40
1
 40
1
 40
1
 10
473.083983
 20
0.141112
 30
0.0
 10
473.360135
 20
0.141103
 30
0.0
 10
473.584230
 20
0.364973
 30
0.0
 10
473.584222
 20
0.641125
 30
0.0
  0
LINE
  5
128
100
AcDbEntity
  8
Layer_1
 62
7
100
AcDbLine
 10
473.584222
 20
0.641125
 30
0.0
 11
473.584222
 21
15.040921
 31
0.0
  0
SPLINE
  5
129
100
AcDbEntity
  8
Layer_1
 62
7
100
AcDbSpline
 70
8
 71
3
 72
8
 73
4
 74
0
 40
0
 40
0
 40
0
 40
0
 40
1
 40
1
 40
1
 40
1
 10
473.584222
 20
15.040921
 30
0.0
 10
473.584225
 20
15.173534
 30
0.0
 10
473.531547
 20
15.300716
 30
0.0
 10
473.437775
 20
15.394488
 30
0.0
  0
SPLINE
  5
12a
100
AcDbEntity
  8
Layer_1
 62
7
100
AcDbSpline
 70
8
 71
3
 72
8
 73
4
 74
0
 40
0
 40
0
 40
0
 40
0
 40
1
 40
1
 40
1
 40
1
 10
473.437775
 20
15.394488
 30
0.0
 10
473.344004
 20
15.488259
 30
0.0
 10
473.216822
 20
15.540938
 30
0.0
 10
473.084209
 20
15.540934
 30
0.0
  0
LINE
  5
12b
100
AcDbEntity
  8
Layer_1
 62
7
100
AcDbLine
 10
473.084209
 20
15.540934
 30
0.0
 11
468.534561
 21
15.540934
 31
0.0
  0
LINE
  5
12c
100
AcDbEntity
  8
Layer_1
 62
7
100
AcDbLine
 10
468.534561
 20
15.540934
 30
0.0
 11
468.534561
 21
26.897221
 31
0.0
  0
LINE
  5
12d
100
AcDbEntity
  8
Layer_1
 62
7
100
AcDbLine
 10
468.534561
 20
26.897221
 30
0.0
 11
469.011178
 21
26.897221
 31
0.0
  0
LINE
  5
12e
100
AcDbEntity
  8
Layer_1
 62
7
100
AcDbLine
 10
469.011178
 20
26.897221
 30
0.0
 11
472.834132
 21
26.897221
 31
0.0
  0
LINE
  5
12f
100
AcDbEntity
  8
Layer_1
 62
7
100
AcDbLine
 10
472.834132
 20
26.897221
 30
0.0
 11
473.034368
 21
26.897221
 31
0.0
  0
SPLINE
  5
130
100
AcDbEntity
  8
Layer_1
 62
7
100
AcDbSpline
 70
8
 71
3
 72
8
 73
4
 74
0
 40
0
 40
0
 40
0
 40
0
 40
1
 40
1
 40
1
 40
1
 10
473.534382
 20
26.397236
 30
0.0
 10
473.534373
 20
26.673377
 30
0.0
 10
473.310510
 20
26.897228
 30
0.0
 10
473.034368
 20
26.897221
 30
0.0
  0
LINE
  5
131
100
AcDbEntity
  8
Layer_1
 62
7
100
AcDbLine
 10
473.534382
 20
26.397236
 30
0.0
 11
473.534382
 21
24.886105
 31
0.0
  0
SPLINE
  5
132
100
AcDbEntity
  8
Layer_1
 62
7
100
AcDbSpline
 70
8
 71
3
 72
8
 73
4
 74
0
 40
0
 40
0
 40
0
 40
0
 40
1
 40
1
 40
1
 40
1
 10
473.534382
 20
24.886105
 30
0.0
 10
473.534385
 20
21.572404
 30
0.0
 10
476.220669
 20
18.886120
 30
0.0
 10
479.534370
 20
18.886117
 30
0.0
  0
SPLINE
  5
133
100
AcDbEntity
  8
Layer_1
 62
7
100
AcDbSpline
 70
8
 71
3
 72
8
 73
4
 74
0
 40
0
 40
0
 40
0
 40
0
 40
1
 40
1
 40
1
 40
1
 10
479.534370
 20
18.886117
 30
0.0
 10
482.848070
 20
18.886120
 30
0.0
 10
485.534355
 20
21.572404
 30
0.0
 10
485.534358
 20
24.886105
 30
0.0
  0
LINE
  5
134
100
AcDbEntity
  8
Layer_1
 62
7
100
AcDbLine
 10
485.534358
 20
24.886105
 30
0.0
 11
485.534358
 21
26.397236
 31
0.0
  0
SPLINE
  5
135
100
AcDbEntity
  8
Layer_1
 62
7
100
AcDbSpline
 70
8
 71
3
 72
8
 73
4
 74
0
 40
0
 40
0
 40
0
 40
0
 40
1
 40
1
 40
1
 40
1
 10
486.034371
 20
26.897221
 30
0.0
 10
485.758229
 20
26.897228
 30
0.0
 10
485.534366
 20
26.673377
 30
0.0
 10
485.534358
 20
26.397236
 30
0.0
  0
LINE
  5
136
100
AcDbEntity
  8
Layer_1
 62
7
100
AcDbLine
 10
486.034371
 20
26.897221
 30
0.0
 11
486.234607
 21
26.897221
 31
0.0
  0
LINE
  5
137
100
AcDbEntity
  8
Layer_1
 62
7
100
AcDbLine
 10
486.234607
 20
26.897221
 30
0.0
 11
490.057561
 21
26.897221
 31
0.0
  0
LINE
  5
138
100
AcDbEntity
  8
Layer_1
 62
7
100
AcDbLine
 10
490.057561
 20
26.897221
 30
0.0
 11
490.534178
 21
26.897221
 31
0.0
  0
LINE
  5
139
100
AcDbEntity
  8
Layer_1
 62
7
100
AcDbLine
 10
490.534178
 20
26.897221
 30
0.0
 11
490.534178
 21
15.540934
 31
0.0
  0
LINE
  5
13a
100
AcDbEntity
  8
Layer_1
 62
7
100
AcDbLine
 10
490.534178
 20
15.540934
 30
0.0
 11
485.984530
 21
15.540934
 31
0.0
  0
SPLINE
  5
13b
100
AcDbEntity
  8
Layer_1
 62
7
100
AcDbSpline
 70
8
 71
3
 72
8
 73
4
 74
0
 40
0
 40
0
 40
0
 40
0
 40
1
 40
1
 40
1
 40
1
 10
485.984530
 20
15.540934
 30
0.0
 10
485.851917
 20
15.540938
 30
0.0
 10
485.724735
 20
15.488259
 30
0.0
 10
485.630964
 20
15.394488
 30
0.0
  0
SPLINE
  5
13c
100
AcDbEntity
  8
Layer_1
 62
7
100
AcDbSpline
 70
8
 71
3
 72
8
 73
4
 74
0
 40
0
 40
0
 40
0
 40
0
 40
1
 40
1
 40
1
 40
1
 10
485.630964
 20
15.394488
 30
0.0
 10
485.537192
 20
15.300716
 30
0.0
 10
485.484514
 20
15.173534
 30
0.0
 10
485.484517
 20
15.040921
 30
0.0
  0
LINE
  5
13d
100
AcDbEntity
  8
Layer_1
 62
7
100
AcDbLine
 10
485.484517
 20
15.040921
 30
0.0
 11
485.484517
 21
0.641125
 31
0.0
  0
SPLINE
  5
13e
100
AcDbEntity
  8
Layer_1
 62
7
100
AcDbSpline
 70
8
 71
3
 72
8
 73
4
 74
0
 40
0
 40
0
 40
0
 40
0
 40
1
 40
1
 40
1
 40
1
 10
485.484517
 20
0.641125
 30
0.0
 10
485.484514
 20
0.508512
 30
0.0
 10
485.537192
 20
0.381330
 30
0.0
 10
485.630964
 20
0.287558
 30
0.0
  0
SPLINE
  5
13f
100
AcDbEntity
  8
Layer_1
 62
7
100
AcDbSpline
 70
8
 71
3
 72
8
 73
4
 74
0
 40
0
 40
0
 40
0
 40
0
 40
1
 40
1
 40
1
 40
1
 10
485.630964
 20
0.287558
 30
0.0
 10
485.724735
 20
0.193787
 30
0.0
 10
485.851917
 20
0.141108
 30
0.0
 10
485.984530
 20
0.141112
 30
0.0
  0
LINE
  5
140
100
AcDbEntity
  8
Layer_1
 62
7
100
AcDbLine
 10
485.984530
 20
0.141112
 30
0.0
 11
542.962742
 21
0.141112
 31
0.0
  0
SPLINE
  5
141
100
AcDbEntity
  8
Layer_1
 62
7
100
AcDbSpline
 70
8
 71
3
 72
8
 73
4
 74
0
 40
0
 40
0
 40
0
 40
0
 40
1
 40
1
 40
1
 40
1
 10
542.962742
 20
0.141112
 30
0.0
 10
543.095354
 20
0.141108
 30
0.0
 10
543.222537
 20
0.193787
 30
0.0
 10
543.316308
 20
0.287558
 30
0.0
  0
SPLINE
  5
142
100
AcDbEntity
  8
Layer_1
 62
7
100
AcDbSpline
 70
8
 71
3
 72
8
 73
4
 74
0
 40
0
 40
0
 40
0
 40
0
 40
1
 40
1
 40
1
 40
1
 10
543.316308
 20
0.287558
 30
0.0
 10
543.410079
 20
0.381330
 30
0.0
 10
543.462758
 20
0.508512
 30
0.0
 10
543.462755
 20
0.641125
 30
0.0
  0
LINE
  5
143
100
AcDbEntity
  8
Layer_1
 62
7
100
AcDbLine
 10
543.462755
 20
0.641125
 30
0.0
 11
543.462755
 21
27.374825
 31
0.0
  0
SPLINE
  5
144
100
AcDbEntity
  8
Layer_1
 62
7
100
AcDbSpline
 70
8
 71
3
 72
8
 73
4
 74
0
 40
0
 40
0
 40
0
 40
0
 40
1
 40
1
 40
1
 40
1
 10
555.453135
 20
38.895108
 30
0.0
 10
549.012051
 20
38.895845
 30
0.0
 10
543.719496
 20
33.810791
 30
0.0
 10
543.462755
 20
27.374825
 30
0.0
  0
SPLINE
  5
145
100
AcDbEntity
  8
Layer_1
 62
7
100
AcDbSpline
 70
8
 71
3
 72
8
 73
4
 74
0
 40
0
 40
0
 40
0
 40
0
 40
1
 40
1
 40
1
 40
1
 10
555.517510
 20
38.894939
 30
0.0
 10
555.496052
 20
38.895053
 30
0.0
 10
555.474594
 20
38.895109
 30
0.0
 10
555.453135
 20
38.895108
 30
0.0
  0
LINE
  5
146
100
AcDbEntity
  8
Layer_1
 62
7
100
AcDbLine
 10
555.517510
 20
38.894939
 30
0.0
 11
566.641130
 21
38.894939
 31
0.0
  0
SPLINE
  5
147
100
AcDbEntity
  8
Layer_1
 62
7
100
AcDbSpline
 70
8
 71
3
 72
8
 73
4
 74
0
 40
0
 40
0
 40
0
 40
0
 40
1
 40
1
 40
1
 40
1
 10
566.641130
 20
38.894939
 30
0.0
 10
566.917271
 20
38.894932
 30
0.0
 10
567.141134
 20
39.118782
 30
0.0
 10
567.141143
 20
39.394924
 30
0.0
  0
SPLINE
  5
148
100
AcDbEntity
  8
Layer_1
 62
7
100
AcDbSpline
 70
8
 71
3
 72
8
 73
4
 74
0
 40
0
 40
0
 40
0
 40
0
 40
1
 40
1
 40
1
 40
1
 10
481.007231
 20
24.868946
 30
0.0
 10
481.007463
 20
25.404267
 30
0.0
 10
480.722006
 20
25.899024
 30
0.0
 10
480.258443
 20
26.166751
 30
0.0
  0
SPLINE
  5
149
100
AcDbEntity
  8
Layer_1
 62
7
100
AcDbSpline
 70
8
 71
3
 72
8
 73
4
 74
0
 40
0
 40
0
 40
0
 40
0
 40
1
 40
1
 40
1
 40
1
 10
480.258443
 20
26.166751
 30
0.0
 10
479.794880
 20
26.434479
 30
0.0
 10
479.223680
 20
26.434479
 30
0.0
 10
478.760117
 20
26.166751
 30
0.0
  0
SPLINE
  5
14a
100
AcDbEntity
  8
Layer_1
 62
7
100
AcDbSpline
 70
8
 71
3
 72
8
 73
4
 74
0
 40
0
 40
0
 40
0
 40
0
 40
1
 40
1
 40
1
 40
1
 10
478.760117
 20
26.166751
 30
0.0
 10
478.296554
 20
25.899024
 30
0.0
 10
478.011097
 20
25.404267
 30
0.0
 10
478.011329
 20
24.868946
 30
0.0
  0
SPLINE
  5
14b
100
AcDbEntity
  8
Layer_1
 62
7
100
AcDbSpline
 70
8
 71
3
 72
8
 73
4
 74
0
 40
0
 40
0
 40
0
 40
0
 40
1
 40
1
 40
1
 40
1
 10
478.011329
 20
24.868946
 30
0.0
 10
478.011097
 20
24.333625
 30
0.0
 10
478.296554
 20
23.838868
 30
0.0
 10
478.760117
 20
23.571141
 30
0.0
  0
SPLINE
  5
14c
100
AcDbEntity
  8
Layer_1
 62
7
100
AcDbSpline
 70
8
 71
3
 72
8
 73
4
 74
0
 40
0
 40
0
 40
0
 40
0
 40
1
 40
1
 40
1
 40
1
 10
478.760117
 20
23.571141
 30
0.0
 10
479.223680
 20
23.303413
 30
0.0
 10
479.794880
 20
23.303413
 30
0.0
 10
480.258443
 20
23.571141
 30
0.0
  0
SPLINE
  5
14d
100
AcDbEntity
  8
Layer_1
 62
7
100
AcDbSpline
 70
8
 71
3
 72
8
 73
4
 74
0
 40
0
 40
0
 40
0
 40
0
 40
1
 40
1
 40
1
 40
1
 10
480.258443
 20
23.571141
 30
0.0
 10
480.722006
 20
23.838868
 30
0.0
 10
481.007463
 20
24.333625
 30
0.0
 10
481.007231
 20
24.868946
 30
0.0
  0
LINE
  5
14e
100
AcDbEntity
  8
Layer_1
 62
7
100
AcDbLine
 10
481.007231
 20
24.868946
 30
0.0
 11
481.007231
 21
24.868946
 31
0.0
  0
SPLINE
  5
14f
100
AcDbEntity
  8
Layer_1
 62
7
100
AcDbSpline
 70
8
 71
3
 72
8
 73
4
 74
0
 40
0
 40
0
 40
0
 40
0
 40
1
 40
1
 40
1
 40
1
 10
402.487082
 20
24.897027
 30
0.0
 10
402.487314
 20
25.432348
 30
0.0
 10
402.201857
 20
25.927105
 30
0.0
 10
401.738294
 20
26.194833
 30
0.0
  0
SPLINE
  5
150
100
AcDbEntity
  8
Layer_1
 62
7
100
AcDbSpline
 70
8
 71
3
 72
8
 73
4
 74
0
 40
0
 40
0
 40
0
 40
0
 40
1
 40
1
 40
1
 40
1
 10
401.738294
 20
26.194833
 30
0.0
 10
401.274731
 20
26.462560
 30
0.0
 10
400.703531
 20
26.462560
 30
0.0
 10
400.239968
 20
26.194833
 30
0.0
  0
SPLINE
  5
151
100
AcDbEntity
  8
Layer_1
 62
7
100
AcDbSpline
 70
8
 71
3
 72
8
 73
4
 74
0
 40
0
 40
0
 40
0
 40
0
 40
1
 40
1
 40
1
 40
1
 10
400.239968
 20
26.194833
 30
0.0
 10
399.776405
 20
25.927105
 30
0.0
 10
399.490948
 20
25.432348
 30
0.0
 10
399.491180
 20
24.897027
 30
0.0
  0
SPLINE
  5
152
100
AcDbEntity
  8
Layer_1
 62
7
100
AcDbSpline
 70
8
 71
3
 72
8
 73
4
 74
0
 40
0
 40
0
 40
0
 40
0
 40
1
 40
1
 40
1
 40
1
 10
399.491180
 20
24.897027
 30
0.0
 10
399.490948
 20
24.361706
 30
0.0
 10
399.776405
 20
23.866949
 30
0.0
 10
400.239968
 20
23.599222
 30
0.0
  0
SPLINE
  5
153
100
AcDbEntity
  8
Layer_1
 62
7
100
AcDbSpline
 70
8
 71
3
 72
8
 73
4
 74
0
 40
0
 40
0
 40
0
 40
0
 40
1
 40
1
 40
1
 40
1
 10
400.239968
 20
23.599222
 30
0.0
 10
400.703531
 20
23.331494
 30
0.0
 10
401.274731
 20
23.331494
 30
0.0
 10
401.738294
 20
23.599222
 30
0.0
  0
SPLINE
  5
154
100
AcDbEntity
  8
Layer_1
 62
7
100
AcDbSpline
 70
8
 71
3
 72
8
 73
4
 74
0
 40
0
 40
0
 40
0
 40
0
 40
1
 40
1
 40
1
 40
1
 10
401.738294
 20
23.599222
 30
0.0
 10
402.201857
 20
23.866949
 30
0.0
 10
402.487314
 20
24.361706
 30
0.0
 10
402.487082
 20
24.897027
 30
0.0
  0
LINE
  5
155
100
AcDbEntity
  8
Layer_1
 62
7
100
AcDbLine
 10
402.487082
 20
24.897027
 30
0.0
 11
402.487082
 21
24.897027
 31
0.0
  0
SPLINE
  5
156
100
AcDbEntity
  8
Layer_1
 62
7
100
AcDbSpline
 70
8
 71
3
 72
8
 73
4
 74
0
 40
0
 40
0
 40
0
 40
0
 40
1
 40
1
 40
1
 40
1
 10
324.255082
 20
24.896237
 30
0.0
 10
324.255262
 20
25.431523
 30
0.0
 10
323.969793
 20
25.926225
 30
0.0
 10
323.506252
 20
26.193920
 30
0.0
  0
SPLINE
  5
157
100
AcDbEntity
  8
Layer_1
 62
7
100
AcDbSpline
 70
8
 71
3
 72
8
 73
4
 74
0
 40
0
 40
0
 40
0
 40
0
 40
1
 40
1
 40
1
 40
1
 10
323.506252
 20
26.193920
 30
0.0
 10
323.042710
 20
26.461615
 30
0.0
 10
322.471551
 20
26.461615
 30
0.0
 10
322.008010
 20
26.193920
 30
0.0
  0
SPLINE
  5
158
100
AcDbEntity
  8
Layer_1
 62
7
100
AcDbSpline
 70
8
 71
3
 72
8
 73
4
 74
0
 40
0
 40
0
 40
0
 40
0
 40
1
 40
1
 40
1
 40
1
 10
322.008010
 20
26.193920
 30
0.0
 10
321.544468
 20
25.926225
 30
0.0
 10
321.259000
 20
25.431523
 30
0.0
 10
321.259180
 20
24.896237
 30
0.0
  0
SPLINE
  5
159
100
AcDbEntity
  8
Layer_1
 62
7
100
AcDbSpline
 70
8
 71
3
 72
8
 73
4
 74
0
 40
0
 40
0
 40
0
 40
0
 40
1
 40
1
 40
1
 40
1
 10
321.259180
 20
24.896237
 30
0.0
 10
321.259000
 20
24.360951
 30
0.0
 10
321.544468
 20
23.866249
 30
0.0
 10
322.008010
 20
23.598554
 30
0.0
  0
SPLINE
  5
15a
100
AcDbEntity
  8
Layer_1
 62
7
100
AcDbSpline
 70
8
 71
3
 72
8
 73
4
 74
0
 40
0
 40
0
 40
0
 40
0
 40
1
 40
1
 40
1
 40
1
 10
322.008010
 20
23.598554
 30
0.0
 10
322.471551
 20
23.330858
 30
0.0
 10
323.042710
 20
23.330858
 30
0.0
 10
323.506252
 20
23.598554
 30
0.0
  0
SPLINE
  5
15b
100
AcDbEntity
  8
Layer_1
 62
7
100
AcDbSpline
 70
8
 71
3
 72
8
 73
4
 74
0
 40
0
 40
0
 40
0
 40
0
 40
1
 40
1
 40
1
 40
1
 10
323.506252
 20
23.598554
 30
0.0
 10
323.969793
 20
23.866249
 30
0.0
 10
324.255262
 20
24.360951
 30
0.0
 10
324.255082
 20
24.896237
 30
0.0
  0
LINE
  5
15c
100
AcDbEntity
  8
Layer_1
 62
7
100
AcDbLine
 10
324.255082
 20
24.896237
 30
0.0
 11
324.255082
 21
24.896237
 31
0.0
  0
SPLINE
  5
15d
100
AcDbEntity
  8
Layer_1
 62
7
100
AcDbSpline
 70
8
 71
3
 72
8
 73
4
 74
0
 40
0
 40
0
 40
0
 40
0
 40
1
 40
1
 40
1
 40
1
 10
246.023082
 20
24.896237
 30
0.0
 10
246.023082
 20
25.431403
 30
0.0
 10
245.737574
 20
25.925917
 30
0.0
 10
245.274107
 20
26.193500
 30
0.0
  0
SPLINE
  5
15e
100
AcDbEntity
  8
Layer_1
 62
7
100
AcDbSpline
 70
8
 71
3
 72
8
 73
4
 74
0
 40
0
 40
0
 40
0
 40
0
 40
1
 40
1
 40
1
 40
1
 10
245.274107
 20
26.193500
 30
0.0
 10
244.810639
 20
26.461084
 30
0.0
 10
244.239623
 20
26.461084
 30
0.0
 10
243.776156
 20
26.193500
 30
0.0
  0
SPLINE
  5
15f
100
AcDbEntity
  8
Layer_1
 62
7
100
AcDbSpline
 70
8
 71
3
 72
8
 73
4
 74
0
 40
0
 40
0
 40
0
 40
0
 40
1
 40
1
 40
1
 40
1
 10
243.776156
 20
26.193500
 30
0.0
 10
243.312688
 20
25.925917
 30
0.0
 10
243.027180
 20
25.431403
 30
0.0
 10
243.027180
 20
24.896237
 30
0.0
  0
SPLINE
  5
160
100
AcDbEntity
  8
Layer_1
 62
7
100
AcDbSpline
 70
8
 71
3
 72
8
 73
4
 74
0
 40
0
 40
0
 40
0
 40
0
 40
1
 40
1
 40
1
 40
1
 10
243.027180
 20
24.896237
 30
0.0
 10
243.027180
 20
24.361071
 30
0.0
 10
243.312688
 20
23.866557
 30
0.0
 10
243.776156
 20
23.598973
 30
0.0
  0
SPLINE
  5
161
100
AcDbEntity
  8
Layer_1
 62
7
100
AcDbSpline
 70
8
 71
3
 72
8
 73
4
 74
0
 40
0
 40
0
 40
0
 40
0
 40
1
 40
1
 40
1
 40
1
 10
243.776156
 20
23.598973
 30
0.0
 10
244.239623
 20
23.331390
 30
0.0
 10
244.810639
 20
23.331390
 30
0.0
 10
245.274107
 20
23.598973
 30
0.0
  0
SPLINE
  5
162
100
AcDbEntity
  8
Layer_1
 62
7
100
AcDbSpline
 70
8
 71
3
 72
8
 73
4
 74
0
 40
0
 40
0
 40
0
 40
0
 40
1
 40
1
 40
1
 40
1
 10
245.274107
 20
23.598973
 30
0.0
 10
245.737574
 20
23.866557
 30
0.0
 10
246.023082
 20
24.361071
 30
0.0
 10
246.023082
 20
24.896237
 30
0.0
  0
LINE
  5
163
100
AcDbEntity
  8
Layer_1
 62
7
100
AcDbLine
 10
246.023082
 20
24.896237
 30
0.0
 11
246.023082
 21
24.896237
 31
0.0
  0
SPLINE
  5
164
100
AcDbEntity
  8
Layer_1
 62
7
100
AcDbSpline
 70
8
 71
3
 72
8
 73
4
 74
0
 40
0
 40
0
 40
0
 40
0
 40
1
 40
1
 40
1
 40
1
 10
167.791082
 20
24.897027
 30
0.0
 10
167.791082
 20
25.432193
 30
0.0
 10
167.505574
 20
25.926707
 30
0.0
 10
167.042107
 20
26.194291
 30
0.0
  0
SPLINE
  5
165
100
AcDbEntity
  8
Layer_1
 62
7
100
AcDbSpline
 70
8
 71
3
 72
8
 73
4
 74
0
 40
0
 40
0
 40
0
 40
0
 40
1
 40
1
 40
1
 40
1
 10
167.042107
 20
26.194291
 30
0.0
 10
166.578639
 20
26.461874
 30
0.0
 10
166.007623
 20
26.461874
 30
0.0
 10
165.544156
 20
26.194291
 30
0.0
  0
SPLINE
  5
166
100
AcDbEntity
  8
Layer_1
 62
7
100
AcDbSpline
 70
8
 71
3
 72
8
 73
4
 74
0
 40
0
 40
0
 40
0
 40
0
 40
1
 40
1
 40
1
 40
1
 10
165.544156
 20
26.194291
 30
0.0
 10
165.080688
 20
25.926707
 30
0.0
 10
164.795180
 20
25.432193
 30
0.0
 10
164.795180
 20
24.897027
 30
0.0
  0
SPLINE
  5
167
100
AcDbEntity
  8
Layer_1
 62
7
100
AcDbSpline
 70
8
 71
3
 72
8
 73
4
 74
0
 40
0
 40
0
 40
0
 40
0
 40
1
 40
1
 40
1
 40
1
 10
164.795180
 20
24.897027
 30
0.0
 10
164.795180
 20
24.361861
 30
0.0
 10
165.080688
 20
23.867347
 30
0.0
 10
165.544156
 20
23.599764
 30
0.0
  0
SPLINE
  5
168
100
AcDbEntity
  8
Layer_1
 62
7
100
AcDbSpline
 70
8
 71
3
 72
8
 73
4
 74
0
 40
0
 40
0
 40
0
 40
0
 40
1
 40
1
 40
1
 40
1
 10
165.544156
 20
23.599764
 30
0.0
 10
166.007623
 20
23.332180
 30
0.0
 10
166.578639
 20
23.332180
 30
0.0
 10
167.042107
 20
23.599764
 30
0.0
  0
SPLINE
  5
169
100
AcDbEntity
  8
Layer_1
 62
7
100
AcDbSpline
 70
8
 71
3
 72
8
 73
4
 74
0
 40
0
 40
0
 40
0
 40
0
 40
1
 40
1
 40
1
 40
1
 10
167.042107
 20
23.599764
 30
0.0
 10
167.505574
 20
23.867347
 30
0.0
 10
167.791082
 20
24.361861
 30
0.0
 10
167.791082
 20
24.897027
 30
0.0
  0
LINE
  5
16a
100
AcDbEntity
  8
Layer_1
 62
7
100
AcDbLine
 10
167.791082
 20
24.897027
 30
0.0
 11
167.791082
 21
24.897027
 31
0.0
  0
SPLINE
  5
16b
100
AcDbEntity
  8
Layer_1
 62
7
100
AcDbSpline
 70
8
 71
3
 72
8
 73
4
 74
0
 40
0
 40
0
 40
0
 40
0
 40
1
 40
1
 40
1
 40
1
 10
89.270930
 20
24.868946
 30
0.0
 10
89.271163
 20
25.404267
 30
0.0
 10
88.985706
 20
25.899024
 30
0.0
 10
88.522143
 20
26.166751
 30
0.0
  0
SPLINE
  5
16c
100
AcDbEntity
  8
Layer_1
 62
7
100
AcDbSpline
 70
8
 71
3
 72
8
 73
4
 74
0
 40
0
 40
0
 40
0
 40
0
 40
1
 40
1
 40
1
 40
1
 10
88.522143
 20
26.166751
 30
0.0
 10
88.058580
 20
26.434479
 30
0.0
 10
87.487379
 20
26.434479
 30
0.0
 10
87.023816
 20
26.166751
 30
0.0
  0
SPLINE
  5
16d
100
AcDbEntity
  8
Layer_1
 62
7
100
AcDbSpline
 70
8
 71
3
 72
8
 73
4
 74
0
 40
0
 40
0
 40
0
 40
0
 40
1
 40
1
 40
1
 40
1
 10
87.023816
 20
26.166751
 30
0.0
 10
86.560253
 20
25.899024
 30
0.0
 10
86.274796
 20
25.404267
 30
0.0
 10
86.275029
 20
24.868946
 30
0.0
  0
SPLINE
  5
16e
100
AcDbEntity
  8
Layer_1
 62
7
100
AcDbSpline
 70
8
 71
3
 72
8
 73
4
 74
0
 40
0
 40
0
 40
0
 40
0
 40
1
 40
1
 40
1
 40
1
 10
86.275029
 20
24.868946
 30
0.0
 10
86.274796
 20
24.333625
 30
0.0
 10
86.560253
 20
23.838868
 30
0.0
 10
87.023816
 20
23.571141
 30
0.0
  0
SPLINE
  5
16f
100
AcDbEntity
  8
Layer_1
 62
7
100
AcDbSpline
 70
8
 71
3
 72
8
 73
4
 74
0
 40
0
 40
0
 40
0
 40
0
 40
1
 40
1
 40
1
 40
1
 10
87.023816
 20
23.571141
 30
0.0
 10
87.487379
 20
23.303413
 30
0.0
 10
88.058580
 20
23.303413
 30
0.0
 10
88.522143
 20
23.571141
 30
0.0
  0
SPLINE
  5
170
100
AcDbEntity
  8
Layer_1
 62
7
100
AcDbSpline
 70
8
 71
3
 72
8
 73
4
 74
0
 40
0
 40
0
 40
0
 40
0
 40
1
 40
1
 40
1
 40
1
 10
88.522143
 20
23.571141
 30
0.0
 10
88.985706
 20
23.838868
 30
0.0
 10
89.271163
 20
24.333625
 30
0.0
 10
89.270930
 20
24.868946
 30
0.0
  0
LINE
  5
171
100
AcDbEntity
  8
Layer_1
 62
7
100
AcDbLine
 10
89.270930
 20
24.868946
 30
0.0
 11
89.270930
 21
24.868946
 31
0.0
  0
LINE
  5
172
100
AcDbEntity
  8
Layer_1
 62
7
100
AcDbLine
 10
94.197983
 20
0.141112
 30
0.0
 11
473.083983
 21
0.141112
 31
0.0
  0
ENDSEC
  0
SECTION
  2
OBJECTS
  0
DICTIONARY
  5
C
330
0
100
AcDbDictionary
  3
ACAD_GROUP
350
D
  3
ACAD_MLINESTYLE
350
17
  0
DICTIONARY
  5
D
330
C
100
AcDbDictionary
  0
DICTIONARY
  5
1A
330
C
100
AcDbDictionary
  0
DICTIONARY
  5
17
330
C
100
AcDbDictionary
  3
STANDARD
350
18
  0
DICTIONARY
  5
19
330
C
100
AcDbDictionary
  0
ENDSEC
  0
EOF
